<svg width="24" height="24" viewBox="0 0 24 24" fill="none" xmlns="http://www.w3.org/2000/svg">
<path d="M10 21C9.71667 21 9.47917 20.9042 9.2875 20.7125C9.09583 20.5208 9 20.2833 9 20V8H4C4 6.61667 4.4875 5.4375 5.4625 4.4625C6.4375 3.4875 7.61667 3 9 3H15V6L18 3H20V11H18L15 8V20C15 20.2833 14.9042 20.5208 14.7125 20.7125C14.5208 20.9042 14.2833 21 14 21H10ZM11 19H13V13H11V19ZM11 11H13V5H9C8.56667 5 8.15833 5.0875 7.775 5.2625C7.39167 5.4375 7.05833 5.68333 6.775 6H11V11Z" fill="black"/>
</svg>
