<svg width="24" height="24" viewBox="0 0 24 24" fill="none" xmlns="http://www.w3.org/2000/svg">
<path d="M19.275 9.1751L15.75 5.6501L13.625 7.7501L11.5 5.6501L14.325 2.8001C14.525 2.6001 14.75 2.45426 15 2.3626C15.25 2.27093 15.5 2.2251 15.75 2.2251C16.0166 2.2251 16.2708 2.27093 16.5125 2.3626C16.7541 2.45426 16.9666 2.6001 17.15 2.8001L19.275 4.9251C19.575 5.20843 19.7958 5.5376 19.9375 5.9126C20.0791 6.2876 20.15 6.66676 20.15 7.0501C20.15 7.43343 20.0791 7.80843 19.9375 8.1751C19.7958 8.54176 19.575 8.8751 19.275 9.1751ZM5.49998 13.7751C5.19998 13.4751 5.04998 13.1209 5.04998 12.7126C5.04998 12.3043 5.19998 11.9501 5.49998 11.6501L7.94998 9.1751L10.075 11.3001L7.59998 13.7751C7.31664 14.0751 6.97081 14.2251 6.56248 14.2251C6.15414 14.2251 5.79998 14.0751 5.49998 13.7751ZM4.42498 21.2001C4.24164 21.0001 4.09998 20.7793 3.99998 20.5376C3.89998 20.2959 3.84998 20.0418 3.84998 19.7751C3.84998 19.5084 3.89581 19.2543 3.98748 19.0126C4.07914 18.7709 4.22498 18.5501 4.42498 18.3501L11.5 11.3001L8.32498 8.1001C8.02498 7.81676 7.87498 7.47093 7.87498 7.0626C7.87498 6.65426 8.02498 6.3001 8.32498 6.0001C8.60831 5.7001 8.95831 5.5501 9.37498 5.5501C9.79164 5.5501 10.15 5.7001 10.45 6.0001L13.625 9.1751L15.05 7.7501L17.85 10.6001C18.05 10.8001 18.15 11.0334 18.15 11.3001C18.15 11.5668 18.05 11.8001 17.85 12.0001C17.65 12.2001 17.4166 12.3001 17.15 12.3001C16.8833 12.3001 16.65 12.2001 16.45 12.0001L7.24998 21.2001C7.04998 21.4001 6.82914 21.5459 6.58748 21.6376C6.34581 21.7293 6.09998 21.7751 5.84998 21.7751C5.59998 21.7751 5.34998 21.7251 5.09998 21.6251C4.84998 21.5251 4.62498 21.3834 4.42498 21.2001Z" fill="black"/>
</svg>
