<svg width="16" height="16" viewBox="0 0 16 16" fill="none" xmlns="http://www.w3.org/2000/svg">
<g clip-path="url(#clip0_566_546)">
<path d="M16 0H0V16H16V0Z" fill="white"/>
<path d="M14.7101 8.37001H14.2001C14.1401 8.05001 14.0301 7.82001 13.8801 7.57001C13.8801 7.57001 14.1201 7.32001 14.2701 7.17001C14.3301 7.10001 14.3301 7.00001 14.2701 6.93001L13.6101 6.28001C13.5501 6.22001 13.4501 6.22001 13.3801 6.28001L12.9801 6.65001H12.9701C12.8901 6.60001 12.7901 6.55001 12.6901 6.51001C12.4901 6.40001 12.3001 6.34001 12.0901 6.30001C12.1001 6.23001 12.1101 6.16001 12.1001 6.09001C12.0301 5.19001 11.3101 4.67001 10.3601 4.67001C10.0101 4.67001 9.68011 4.78001 9.41011 4.96001C9.34011 5.02001 9.22011 4.99001 9.18011 4.90001C8.54011 3.58001 6.21011 3.17001 4.91011 4.40001C4.44011 4.84001 4.19011 5.60001 4.26011 6.31001L6.59011 6.30001L6.92011 5.97001L7.09011 5.80001L7.20011 5.69001L7.27011 5.62001C7.16011 5.42001 7.19011 5.17001 7.35011 5.00001C7.55011 4.80001 7.88011 4.80001 8.09011 5.01001C8.29011 5.21001 8.30011 5.55001 8.10011 5.75001C7.93011 5.91001 7.68011 5.94001 7.48011 5.83001L7.42011 5.88001L7.29011 6.01001L7.12011 6.18001L6.71011 6.60001H6.12011H5.88011H5.64011H5.40011H5.16011H4.91011H4.67011H4.43011H4.19011H3.95011H3.70011H3.62011C3.34011 6.64001 3.03011 6.74001 2.70011 7.00001C2.62011 7.06001 2.55011 7.13001 2.49011 7.20001H2.65011H2.89011H3.13011H3.37011H3.61011H3.85011H4.10011H4.34011H4.58011H4.82011H5.06011H5.30011H5.54011H5.80011H6.04011H6.28011H6.52011H6.76011H7.00011H7.24011H7.48011H7.50011C7.56011 6.98001 7.76011 6.82001 8.00011 6.82001C8.29011 6.82001 8.53011 7.06001 8.53011 7.35001C8.53011 7.64001 8.29011 7.88001 8.00011 7.88001C7.76011 7.88001 7.56011 7.72001 7.50011 7.50001H7.49011H7.25011H7.01011H6.77011H6.52011H6.28011H6.04011H5.80011H5.55011H5.31011H5.07011H4.83011H4.59011H4.34011H4.10011H3.86011H3.62011H3.37011H3.13011H2.89011H2.65011H2.41011H2.27011C2.16011 7.69001 2.10011 7.90001 2.06011 8.10001H2.30011H2.54011H2.78011H3.02011H3.26011H3.50011H3.74011H3.98011H4.22011H4.46011H4.70011H4.94011H5.18011H5.42011H5.66011H5.90011H6.14011H6.38011H6.40011C6.46011 7.88001 6.66011 7.72001 6.90011 7.72001C7.19011 7.72001 7.42011 7.96001 7.42011 8.25001C7.42011 8.54001 7.19011 8.78001 6.90011 8.78001C6.66011 8.78001 6.47011 8.62001 6.40011 8.40001H6.37011H6.13011H5.89011H5.66011H5.42011H5.18011H4.94011H4.70011H4.46011H4.22011H3.98011H3.74011H3.50011H3.26011H3.02011H2.78011H2.54011H2.30011H2.06011H2.04011C2.03011 8.60001 2.05011 8.81001 2.09011 8.99001H2.24011H2.48011H2.72011H2.96011H3.20011H3.44011H3.70011H3.94011H4.18011H4.42011H4.66011H4.90011H5.14011H5.38011H5.62011H5.86011H6.10011H6.34011H6.60011H6.84011H7.08011H7.32011H7.56011H7.80011H8.04011H8.30011H8.32011C8.38011 8.77001 8.58011 8.61001 8.82011 8.61001C9.11011 8.61001 9.35011 8.85001 9.35011 9.14001C9.35011 9.43001 9.11011 9.67001 8.82011 9.67001C8.58011 9.67001 8.38011 9.51001 8.32011 9.29001H8.30011H8.06011H7.81011H7.57011H7.33011H7.09011H6.84011H6.60011H6.36011H6.12011H5.88011H5.63011H5.39011H5.15011H4.91011H4.66011H4.42011H4.18011H3.94011H3.70011H3.45011H3.21011H2.97011H2.73011H2.48011H2.24011H1.76011C1.53011 9.43001 1.34011 9.64001 1.23011 9.89001H2.14011H2.38011H2.62011H2.86011H3.10011H3.34011H3.58011H3.80011H4.04011H4.28011H4.52011H4.76011H5.00011H5.24011H5.48011H5.70011H6.29011L6.70011 10.3C6.90011 10.19 7.16011 10.21 7.33011 10.38C7.53011 10.58 7.53011 10.91 7.33011 11.12C7.13011 11.32 6.79011 11.33 6.59011 11.12C6.42011 10.95 6.39011 10.71 6.50011 10.51V10.5L6.17011 10.17H5.70011H5.47011H5.23011H4.99011H4.75011H4.51011H4.28011H4.04011H3.80011H3.56011H3.32011H3.08011H2.85011H2.61011H2.37011H2.13011H1.13011C1.12011 10.24 1.11011 10.31 1.11011 10.39C1.11011 10.96 1.49011 11.45 2.00011 11.62C2.02011 11.63 2.06011 11.63 2.06011 11.63H11.5101C11.5101 11.63 11.9801 11.63 12.1101 11.62C12.4301 11.56 12.6701 11.45 12.9201 11.3L13.3301 11.68C13.4001 11.74 13.5001 11.74 13.5601 11.68L14.2301 11.03C14.3001 10.97 14.3001 10.86 14.2301 10.8L13.8601 10.41C14.0101 10.17 14.1201 9.94001 14.1901 9.62001H14.7101C14.8001 9.62001 14.8801 9.55001 14.8801 9.45001V8.53001C14.8801 8.44001 14.8101 8.37001 14.7101 8.37001ZM11.7201 10.39C10.8901 10.39 10.2201 9.72001 10.2201 8.89001C10.2201 8.06001 10.8901 7.39001 11.7201 7.39001C12.5501 7.39001 13.2201 8.06001 13.2201 8.89001C13.2201 9.72001 12.5501 10.39 11.7201 10.39Z" fill="url(#paint0_linear_566_546)"/>
</g>
<defs>
<linearGradient id="paint0_linear_566_546" x1="1.11901" y1="7.69121" x2="14.8812" y2="7.69121" gradientUnits="userSpaceOnUse">
<stop stop-color="#39A0D5"/>
<stop offset="1" stop-color="#0F253E"/>
</linearGradient>
<clipPath id="clip0_566_546">
<rect width="16" height="16" rx="3" fill="white"/>
</clipPath>
</defs>
</svg>
